G04 #@! TF.GenerationSoftware,KiCad,Pcbnew,(5.1.5)-3*
G04 #@! TF.CreationDate,2021-10-12T15:59:54+02:00*
G04 #@! TF.ProjectId,RFID_Cosine,52464944-5f43-46f7-9369-6e652e6b6963,rev?*
G04 #@! TF.SameCoordinates,Original*
G04 #@! TF.FileFunction,Copper,L1,Top*
G04 #@! TF.FilePolarity,Positive*
%FSLAX46Y46*%
G04 Gerber Fmt 4.6, Leading zero omitted, Abs format (unit mm)*
G04 Created by KiCad (PCBNEW (5.1.5)-3) date 2021-10-12 15:59:54*
%MOMM*%
%LPD*%
G04 APERTURE LIST*
%ADD10R,4.000000X2.000000*%
%ADD11R,1.450000X0.450000*%
%ADD12C,0.600000*%
%ADD13C,0.500000*%
%ADD14C,0.254000*%
G04 APERTURE END LIST*
D10*
X125000000Y-103500000D03*
X125000000Y-106040000D03*
X125000000Y-108580000D03*
X125000000Y-111120000D03*
X148250000Y-102630000D03*
X148250000Y-105170000D03*
X148250000Y-107710000D03*
X148250000Y-110250000D03*
D11*
X132725001Y-105850001D03*
X132725001Y-106500001D03*
X132725001Y-107150001D03*
X132725001Y-107800001D03*
X138625001Y-107800001D03*
X138625001Y-107150001D03*
X138625001Y-106500001D03*
X138625001Y-105850001D03*
D12*
X129500000Y-103500000D02*
X125000000Y-103500000D01*
D13*
X132725001Y-105850001D02*
X131750001Y-105850001D01*
X131750001Y-105850001D02*
X130150000Y-104250000D01*
X130150000Y-104150000D02*
X129500000Y-103500000D01*
X130150000Y-104250000D02*
X130150000Y-104150000D01*
X125460001Y-106500001D02*
X125000000Y-106040000D01*
X132725001Y-106500001D02*
X125460001Y-106500001D01*
X132725001Y-107150001D02*
X129199999Y-107150001D01*
X127770000Y-108580000D02*
X125000000Y-108580000D01*
X129199999Y-107150001D02*
X127770000Y-108580000D01*
X132725001Y-107800001D02*
X130449999Y-107800001D01*
X127130000Y-111120000D02*
X125000000Y-111120000D01*
X130449999Y-107800001D02*
X127130000Y-111120000D01*
X138625001Y-105850001D02*
X141849999Y-105850001D01*
X145070000Y-102630000D02*
X148250000Y-102630000D01*
X141849999Y-105850001D02*
X145070000Y-102630000D01*
X138625001Y-106500001D02*
X144049999Y-106500001D01*
X145380000Y-105170000D02*
X148250000Y-105170000D01*
X144049999Y-106500001D02*
X145380000Y-105170000D01*
X138625001Y-107150001D02*
X145450001Y-107150001D01*
X146010000Y-107710000D02*
X148250000Y-107710000D01*
X145450001Y-107150001D02*
X146010000Y-107710000D01*
X138625001Y-107800001D02*
X143200001Y-107800001D01*
X145650000Y-110250000D02*
X148250000Y-110250000D01*
X143200001Y-107800001D02*
X145650000Y-110250000D01*
D14*
G36*
X150840001Y-101387465D02*
G01*
X150839502Y-101385820D01*
X150780537Y-101275506D01*
X150701185Y-101178815D01*
X150604494Y-101099463D01*
X150494180Y-101040498D01*
X150374482Y-101004188D01*
X150250000Y-100991928D01*
X146250000Y-100991928D01*
X146125518Y-101004188D01*
X146005820Y-101040498D01*
X145895506Y-101099463D01*
X145798815Y-101178815D01*
X145719463Y-101275506D01*
X145660498Y-101385820D01*
X145624188Y-101505518D01*
X145611928Y-101630000D01*
X145611928Y-101745000D01*
X145113466Y-101745000D01*
X145069999Y-101740719D01*
X145026533Y-101745000D01*
X145026523Y-101745000D01*
X144896510Y-101757805D01*
X144729687Y-101808411D01*
X144575941Y-101890589D01*
X144575939Y-101890590D01*
X144575940Y-101890590D01*
X144474953Y-101973468D01*
X144474951Y-101973470D01*
X144441183Y-102001183D01*
X144413470Y-102034951D01*
X141483421Y-104965001D01*
X138581524Y-104965001D01*
X138451511Y-104977806D01*
X138421437Y-104986929D01*
X137900001Y-104986929D01*
X137775519Y-104999189D01*
X137655821Y-105035499D01*
X137545507Y-105094464D01*
X137448816Y-105173816D01*
X137369464Y-105270507D01*
X137310499Y-105380821D01*
X137274189Y-105500519D01*
X137261929Y-105625001D01*
X137261929Y-106075001D01*
X137271778Y-106175001D01*
X137261929Y-106275001D01*
X137261929Y-106725001D01*
X137271778Y-106825000D01*
X137261929Y-106925001D01*
X137261929Y-107375001D01*
X137271778Y-107475001D01*
X137261929Y-107575001D01*
X137261929Y-108025001D01*
X137274189Y-108149483D01*
X137310499Y-108269181D01*
X137369464Y-108379495D01*
X137448816Y-108476186D01*
X137545507Y-108555538D01*
X137655821Y-108614503D01*
X137775519Y-108650813D01*
X137900001Y-108663073D01*
X138421437Y-108663073D01*
X138451511Y-108672196D01*
X138581524Y-108685001D01*
X142833423Y-108685001D01*
X144993470Y-110845049D01*
X145021183Y-110878817D01*
X145054951Y-110906530D01*
X145054953Y-110906532D01*
X145155941Y-110989411D01*
X145309687Y-111071589D01*
X145476510Y-111122195D01*
X145606523Y-111135000D01*
X145606531Y-111135000D01*
X145611928Y-111135532D01*
X145611928Y-111250000D01*
X145624188Y-111374482D01*
X145660498Y-111494180D01*
X145719463Y-111604494D01*
X145798815Y-111701185D01*
X145895506Y-111780537D01*
X146005820Y-111839502D01*
X146125518Y-111875812D01*
X146250000Y-111888072D01*
X150250000Y-111888072D01*
X150374482Y-111875812D01*
X150494180Y-111839502D01*
X150604494Y-111780537D01*
X150701185Y-111701185D01*
X150780537Y-111604494D01*
X150839502Y-111494180D01*
X150840000Y-111492538D01*
X150840000Y-113340000D01*
X122660000Y-113340000D01*
X122660000Y-112658284D01*
X122755820Y-112709502D01*
X122875518Y-112745812D01*
X123000000Y-112758072D01*
X124714250Y-112755000D01*
X124873000Y-112596250D01*
X124873000Y-111247000D01*
X125127000Y-111247000D01*
X125127000Y-112596250D01*
X125285750Y-112755000D01*
X127000000Y-112758072D01*
X127124482Y-112745812D01*
X127244180Y-112709502D01*
X127354494Y-112650537D01*
X127451185Y-112571185D01*
X127530537Y-112474494D01*
X127589502Y-112364180D01*
X127625812Y-112244482D01*
X127638072Y-112120000D01*
X127635000Y-111405750D01*
X127476250Y-111247000D01*
X125127000Y-111247000D01*
X124873000Y-111247000D01*
X124853000Y-111247000D01*
X124853000Y-110993000D01*
X124873000Y-110993000D01*
X124873000Y-110973000D01*
X125127000Y-110973000D01*
X125127000Y-110993000D01*
X127476250Y-110993000D01*
X127635000Y-110834250D01*
X127638072Y-110120000D01*
X127625812Y-109995518D01*
X127589502Y-109875820D01*
X127575701Y-109850000D01*
X127589502Y-109824180D01*
X127625812Y-109704482D01*
X127638072Y-109580000D01*
X127638072Y-109465000D01*
X127726531Y-109465000D01*
X127770000Y-109469281D01*
X127813469Y-109465000D01*
X127813477Y-109465000D01*
X127943490Y-109452195D01*
X128110313Y-109401589D01*
X128264059Y-109319411D01*
X128398817Y-109208817D01*
X128426534Y-109175044D01*
X129566578Y-108035001D01*
X131386751Y-108035001D01*
X131365001Y-108056751D01*
X131376157Y-108158997D01*
X131414286Y-108278128D01*
X131474923Y-108387532D01*
X131555738Y-108483004D01*
X131653626Y-108560875D01*
X131764826Y-108618152D01*
X131885062Y-108652635D01*
X132009716Y-108662999D01*
X132439251Y-108660001D01*
X132598001Y-108501251D01*
X132598001Y-108035001D01*
X132768478Y-108035001D01*
X132852001Y-108026775D01*
X132852001Y-108501251D01*
X133010751Y-108660001D01*
X133440286Y-108662999D01*
X133564940Y-108652635D01*
X133685176Y-108618152D01*
X133796376Y-108560875D01*
X133894264Y-108483004D01*
X133975079Y-108387532D01*
X134035716Y-108278128D01*
X134073845Y-108158997D01*
X134085001Y-108056751D01*
X133926251Y-107898001D01*
X133813679Y-107898001D01*
X133901186Y-107826186D01*
X133980538Y-107729495D01*
X134039503Y-107619181D01*
X134052754Y-107575498D01*
X134085001Y-107543251D01*
X134077906Y-107478228D01*
X134088073Y-107375001D01*
X134088073Y-106925001D01*
X134078224Y-106825000D01*
X134088073Y-106725001D01*
X134088073Y-106275001D01*
X134078224Y-106175001D01*
X134088073Y-106075001D01*
X134088073Y-105625001D01*
X134075813Y-105500519D01*
X134039503Y-105380821D01*
X133980538Y-105270507D01*
X133901186Y-105173816D01*
X133804495Y-105094464D01*
X133694181Y-105035499D01*
X133574483Y-104999189D01*
X133450001Y-104986929D01*
X132928565Y-104986929D01*
X132898491Y-104977806D01*
X132768478Y-104965001D01*
X132116580Y-104965001D01*
X130976084Y-103824506D01*
X130971589Y-103809688D01*
X130889411Y-103655941D01*
X130860886Y-103621183D01*
X130806532Y-103554953D01*
X130806530Y-103554951D01*
X130778817Y-103521183D01*
X130745049Y-103493470D01*
X130340413Y-103088834D01*
X130281186Y-102978028D01*
X130164344Y-102835656D01*
X130021972Y-102718814D01*
X129859540Y-102631993D01*
X129683292Y-102578529D01*
X129545932Y-102565000D01*
X127638072Y-102565000D01*
X127638072Y-102500000D01*
X127625812Y-102375518D01*
X127589502Y-102255820D01*
X127530537Y-102145506D01*
X127451185Y-102048815D01*
X127354494Y-101969463D01*
X127244180Y-101910498D01*
X127124482Y-101874188D01*
X127000000Y-101861928D01*
X123000000Y-101861928D01*
X122875518Y-101874188D01*
X122755820Y-101910498D01*
X122660000Y-101961716D01*
X122660000Y-100660000D01*
X150840001Y-100660000D01*
X150840001Y-101387465D01*
G37*
X150840001Y-101387465D02*
X150839502Y-101385820D01*
X150780537Y-101275506D01*
X150701185Y-101178815D01*
X150604494Y-101099463D01*
X150494180Y-101040498D01*
X150374482Y-101004188D01*
X150250000Y-100991928D01*
X146250000Y-100991928D01*
X146125518Y-101004188D01*
X146005820Y-101040498D01*
X145895506Y-101099463D01*
X145798815Y-101178815D01*
X145719463Y-101275506D01*
X145660498Y-101385820D01*
X145624188Y-101505518D01*
X145611928Y-101630000D01*
X145611928Y-101745000D01*
X145113466Y-101745000D01*
X145069999Y-101740719D01*
X145026533Y-101745000D01*
X145026523Y-101745000D01*
X144896510Y-101757805D01*
X144729687Y-101808411D01*
X144575941Y-101890589D01*
X144575939Y-101890590D01*
X144575940Y-101890590D01*
X144474953Y-101973468D01*
X144474951Y-101973470D01*
X144441183Y-102001183D01*
X144413470Y-102034951D01*
X141483421Y-104965001D01*
X138581524Y-104965001D01*
X138451511Y-104977806D01*
X138421437Y-104986929D01*
X137900001Y-104986929D01*
X137775519Y-104999189D01*
X137655821Y-105035499D01*
X137545507Y-105094464D01*
X137448816Y-105173816D01*
X137369464Y-105270507D01*
X137310499Y-105380821D01*
X137274189Y-105500519D01*
X137261929Y-105625001D01*
X137261929Y-106075001D01*
X137271778Y-106175001D01*
X137261929Y-106275001D01*
X137261929Y-106725001D01*
X137271778Y-106825000D01*
X137261929Y-106925001D01*
X137261929Y-107375001D01*
X137271778Y-107475001D01*
X137261929Y-107575001D01*
X137261929Y-108025001D01*
X137274189Y-108149483D01*
X137310499Y-108269181D01*
X137369464Y-108379495D01*
X137448816Y-108476186D01*
X137545507Y-108555538D01*
X137655821Y-108614503D01*
X137775519Y-108650813D01*
X137900001Y-108663073D01*
X138421437Y-108663073D01*
X138451511Y-108672196D01*
X138581524Y-108685001D01*
X142833423Y-108685001D01*
X144993470Y-110845049D01*
X145021183Y-110878817D01*
X145054951Y-110906530D01*
X145054953Y-110906532D01*
X145155941Y-110989411D01*
X145309687Y-111071589D01*
X145476510Y-111122195D01*
X145606523Y-111135000D01*
X145606531Y-111135000D01*
X145611928Y-111135532D01*
X145611928Y-111250000D01*
X145624188Y-111374482D01*
X145660498Y-111494180D01*
X145719463Y-111604494D01*
X145798815Y-111701185D01*
X145895506Y-111780537D01*
X146005820Y-111839502D01*
X146125518Y-111875812D01*
X146250000Y-111888072D01*
X150250000Y-111888072D01*
X150374482Y-111875812D01*
X150494180Y-111839502D01*
X150604494Y-111780537D01*
X150701185Y-111701185D01*
X150780537Y-111604494D01*
X150839502Y-111494180D01*
X150840000Y-111492538D01*
X150840000Y-113340000D01*
X122660000Y-113340000D01*
X122660000Y-112658284D01*
X122755820Y-112709502D01*
X122875518Y-112745812D01*
X123000000Y-112758072D01*
X124714250Y-112755000D01*
X124873000Y-112596250D01*
X124873000Y-111247000D01*
X125127000Y-111247000D01*
X125127000Y-112596250D01*
X125285750Y-112755000D01*
X127000000Y-112758072D01*
X127124482Y-112745812D01*
X127244180Y-112709502D01*
X127354494Y-112650537D01*
X127451185Y-112571185D01*
X127530537Y-112474494D01*
X127589502Y-112364180D01*
X127625812Y-112244482D01*
X127638072Y-112120000D01*
X127635000Y-111405750D01*
X127476250Y-111247000D01*
X125127000Y-111247000D01*
X124873000Y-111247000D01*
X124853000Y-111247000D01*
X124853000Y-110993000D01*
X124873000Y-110993000D01*
X124873000Y-110973000D01*
X125127000Y-110973000D01*
X125127000Y-110993000D01*
X127476250Y-110993000D01*
X127635000Y-110834250D01*
X127638072Y-110120000D01*
X127625812Y-109995518D01*
X127589502Y-109875820D01*
X127575701Y-109850000D01*
X127589502Y-109824180D01*
X127625812Y-109704482D01*
X127638072Y-109580000D01*
X127638072Y-109465000D01*
X127726531Y-109465000D01*
X127770000Y-109469281D01*
X127813469Y-109465000D01*
X127813477Y-109465000D01*
X127943490Y-109452195D01*
X128110313Y-109401589D01*
X128264059Y-109319411D01*
X128398817Y-109208817D01*
X128426534Y-109175044D01*
X129566578Y-108035001D01*
X131386751Y-108035001D01*
X131365001Y-108056751D01*
X131376157Y-108158997D01*
X131414286Y-108278128D01*
X131474923Y-108387532D01*
X131555738Y-108483004D01*
X131653626Y-108560875D01*
X131764826Y-108618152D01*
X131885062Y-108652635D01*
X132009716Y-108662999D01*
X132439251Y-108660001D01*
X132598001Y-108501251D01*
X132598001Y-108035001D01*
X132768478Y-108035001D01*
X132852001Y-108026775D01*
X132852001Y-108501251D01*
X133010751Y-108660001D01*
X133440286Y-108662999D01*
X133564940Y-108652635D01*
X133685176Y-108618152D01*
X133796376Y-108560875D01*
X133894264Y-108483004D01*
X133975079Y-108387532D01*
X134035716Y-108278128D01*
X134073845Y-108158997D01*
X134085001Y-108056751D01*
X133926251Y-107898001D01*
X133813679Y-107898001D01*
X133901186Y-107826186D01*
X133980538Y-107729495D01*
X134039503Y-107619181D01*
X134052754Y-107575498D01*
X134085001Y-107543251D01*
X134077906Y-107478228D01*
X134088073Y-107375001D01*
X134088073Y-106925001D01*
X134078224Y-106825000D01*
X134088073Y-106725001D01*
X134088073Y-106275001D01*
X134078224Y-106175001D01*
X134088073Y-106075001D01*
X134088073Y-105625001D01*
X134075813Y-105500519D01*
X134039503Y-105380821D01*
X133980538Y-105270507D01*
X133901186Y-105173816D01*
X133804495Y-105094464D01*
X133694181Y-105035499D01*
X133574483Y-104999189D01*
X133450001Y-104986929D01*
X132928565Y-104986929D01*
X132898491Y-104977806D01*
X132768478Y-104965001D01*
X132116580Y-104965001D01*
X130976084Y-103824506D01*
X130971589Y-103809688D01*
X130889411Y-103655941D01*
X130860886Y-103621183D01*
X130806532Y-103554953D01*
X130806530Y-103554951D01*
X130778817Y-103521183D01*
X130745049Y-103493470D01*
X130340413Y-103088834D01*
X130281186Y-102978028D01*
X130164344Y-102835656D01*
X130021972Y-102718814D01*
X129859540Y-102631993D01*
X129683292Y-102578529D01*
X129545932Y-102565000D01*
X127638072Y-102565000D01*
X127638072Y-102500000D01*
X127625812Y-102375518D01*
X127589502Y-102255820D01*
X127530537Y-102145506D01*
X127451185Y-102048815D01*
X127354494Y-101969463D01*
X127244180Y-101910498D01*
X127124482Y-101874188D01*
X127000000Y-101861928D01*
X123000000Y-101861928D01*
X122875518Y-101874188D01*
X122755820Y-101910498D01*
X122660000Y-101961716D01*
X122660000Y-100660000D01*
X150840001Y-100660000D01*
X150840001Y-101387465D01*
M02*
